<svg width="28" height="29" viewBox="0 0 28 29" fill="none" xmlns="http://www.w3.org/2000/svg">
<path d="M25.6666 25.375V22.9583C25.6666 20.7062 24.1794 18.8138 22.1666 18.2773M18.0833 3.97633C19.7935 4.69334 21 6.42992 21 8.45833C21 10.4867 19.7935 12.2233 18.0833 12.9403M19.8333 25.375C19.8333 23.1229 19.8333 21.9969 19.4781 21.1087C19.0044 19.9244 18.096 18.9835 16.9525 18.4929C16.0949 18.125 15.0077 18.125 12.8333 18.125H9.33331C7.15892 18.125 6.07172 18.125 5.21412 18.4929C4.07066 18.9835 3.16218 19.9244 2.68854 21.1087C2.33331 21.9969 2.33331 23.1229 2.33331 25.375M15.75 8.45833C15.75 11.1277 13.6606 13.2917 11.0833 13.2917C8.50598 13.2917 6.41665 11.1277 6.41665 8.45833C6.41665 5.78896 8.50598 3.625 11.0833 3.625C13.6606 3.625 15.75 5.78896 15.75 8.45833Z" stroke="#C0C0C0" stroke-width="2" stroke-linecap="round" stroke-linejoin="round"/>
</svg>
