<svg width="35" height="35" viewBox="0 0 35 35" fill="none" xmlns="http://www.w3.org/2000/svg">
<path d="M17.5 21.8751C19.9163 21.8751 21.875 19.9163 21.875 17.5001C21.875 15.0838 19.9163 13.1251 17.5 13.1251C15.0838 13.1251 13.125 15.0838 13.125 17.5001C13.125 19.9163 15.0838 21.8751 17.5 21.8751Z" stroke="#C0C0C0" stroke-width="2" stroke-linecap="round" stroke-linejoin="round"/>
<path d="M27.3106 21.4774C27.1341 21.8772 27.0815 22.3208 27.1595 22.7509C27.2375 23.1809 27.4425 23.5778 27.7481 23.8902L27.8277 23.9698C28.0742 24.216 28.2698 24.5085 28.4032 24.8304C28.5366 25.1522 28.6053 25.4973 28.6053 25.8457C28.6053 26.1942 28.5366 26.5392 28.4032 26.8611C28.2698 27.183 28.0742 27.4754 27.8277 27.7217C27.5814 27.9682 27.289 28.1638 26.9671 28.2972C26.6452 28.4306 26.3002 28.4993 25.9517 28.4993C25.6033 28.4993 25.2582 28.4306 24.9364 28.2972C24.6145 28.1638 24.322 27.9682 24.0758 27.7217L23.9962 27.6421C23.6838 27.3365 23.2869 27.1315 22.8569 27.0535C22.4268 26.9755 21.9832 27.0281 21.5834 27.2046C21.1912 27.3727 20.8568 27.6517 20.6213 28.0074C20.3857 28.3631 20.2593 28.7799 20.2576 29.2065V29.4319C20.2576 30.1351 19.9782 30.8095 19.481 31.3068C18.9837 31.8041 18.3093 32.0834 17.6061 32.0834C16.9029 32.0834 16.2284 31.8041 15.7312 31.3068C15.2339 30.8095 14.9546 30.1351 14.9546 29.4319V29.3126C14.9443 28.8738 14.8023 28.4482 14.5469 28.0912C14.2916 27.7341 13.9347 27.4622 13.5227 27.3107C13.1229 27.1342 12.6793 27.0816 12.2492 27.1595C11.8192 27.2375 11.4223 27.4426 11.1099 27.7482L11.0303 27.8277C10.7841 28.0743 10.4916 28.2698 10.1697 28.4033C9.84786 28.5367 9.50283 28.6054 9.15438 28.6054C8.80593 28.6054 8.46089 28.5367 8.139 28.4033C7.81712 28.2698 7.52468 28.0743 7.27843 27.8277C7.0319 27.5815 6.83633 27.289 6.70289 26.9672C6.56946 26.6453 6.50078 26.3002 6.50078 25.9518C6.50078 25.6033 6.56946 25.2583 6.70289 24.9364C6.83633 24.6145 7.0319 24.3221 7.27843 24.0758L7.35797 23.9963C7.66361 23.6838 7.86864 23.287 7.94662 22.8569C8.0246 22.4269 7.97195 21.9833 7.79547 21.5834C7.62742 21.1913 7.34837 20.8569 6.99268 20.6213C6.63699 20.3858 6.22019 20.2594 5.79358 20.2577H5.5682C4.86498 20.2577 4.19055 19.9783 3.6933 19.481C3.19604 18.9838 2.91669 18.3094 2.91669 17.6061C2.91669 16.9029 3.19604 16.2285 3.6933 15.7312C4.19055 15.234 4.86498 14.9546 5.5682 14.9546H5.68752C6.12634 14.9444 6.55192 14.8023 6.90894 14.547C7.26596 14.2916 7.5379 13.9348 7.68941 13.5228C7.86589 13.1229 7.91854 12.6794 7.84056 12.2493C7.76258 11.8192 7.55755 11.4224 7.25191 11.1099L7.17237 11.0304C6.92584 10.7841 6.73027 10.4917 6.59683 10.1698C6.4634 9.84792 6.39471 9.50289 6.39471 9.15444C6.39471 8.80599 6.4634 8.46095 6.59683 8.13907C6.73027 7.81718 6.92584 7.52474 7.17237 7.27849C7.41862 7.03196 7.71105 6.83639 8.03294 6.70295C8.35483 6.56952 8.69987 6.50084 9.04832 6.50084C9.39677 6.50084 9.7418 6.56952 10.0637 6.70295C10.3856 6.83639 10.678 7.03196 10.9243 7.27849L11.0038 7.35804C11.3163 7.66367 11.7131 7.8687 12.1432 7.94668C12.5732 8.02466 13.0168 7.97201 13.4167 7.79554H13.5227C13.9149 7.62748 14.2493 7.34843 14.4848 6.99274C14.7204 6.63706 14.8468 6.22025 14.8485 5.79364V5.56826C14.8485 4.86504 15.1279 4.19061 15.6251 3.69336C16.1224 3.1961 16.7968 2.91675 17.5 2.91675C18.2032 2.91675 18.8777 3.1961 19.3749 3.69336C19.8722 4.19061 20.1515 4.86504 20.1515 5.56826V5.68758C20.1532 6.11419 20.2796 6.531 20.5152 6.88668C20.7508 7.24237 21.0852 7.52142 21.4773 7.68948C21.8772 7.86595 22.3207 7.9186 22.7508 7.84062C23.1809 7.76264 23.5777 7.55761 23.8902 7.25198L23.9697 7.17243C24.216 6.9259 24.5084 6.73033 24.8303 6.59689C25.1522 6.46346 25.4972 6.39478 25.8457 6.39478C26.1941 6.39478 26.5391 6.46346 26.861 6.59689C27.1829 6.73033 27.4754 6.9259 27.7216 7.17243C27.9681 7.41868 28.1637 7.71112 28.2971 8.033C28.4306 8.35489 28.4993 8.69993 28.4993 9.04838C28.4993 9.39683 28.4306 9.74186 28.2971 10.0637C28.1637 10.3856 27.9681 10.6781 27.7216 10.9243L27.6421 11.0039C27.3364 11.3163 27.1314 11.7132 27.0534 12.1432C26.9754 12.5733 27.0281 13.0169 27.2046 13.4167V13.5228C27.3726 13.9149 27.6517 14.2493 28.0074 14.4849C28.363 14.7205 28.7798 14.8469 29.2065 14.8486H29.4318C30.1351 14.8486 30.8095 15.1279 31.3067 15.6252C31.804 16.1224 32.0834 16.7969 32.0834 17.5001C32.0834 18.2033 31.804 18.8777 31.3067 19.375C30.8095 19.8722 30.1351 20.1516 29.4318 20.1516H29.3125C28.8859 20.1533 28.4691 20.2797 28.1134 20.5153C27.7577 20.7508 27.4787 21.0852 27.3106 21.4774Z" stroke="#C0C0C0" stroke-width="2" stroke-linecap="round" stroke-linejoin="round"/>
</svg>
