<svg width="32" height="32" viewBox="0 0 32 32" fill="none" xmlns="http://www.w3.org/2000/svg">
<path d="M12 28V18.1333C12 17.3866 12 17.0132 12.1454 16.728C12.2732 16.4771 12.4772 16.2732 12.728 16.1453C13.0133 16 13.3866 16 14.1334 16H17.8667C18.6134 16 18.9868 16 19.272 16.1453C19.5229 16.2732 19.7269 16.4771 19.8547 16.728C20 17.0132 20 17.3866 20 18.1333V28M2.66669 12.6667L14.72 3.62667C15.179 3.28241 15.4085 3.11028 15.6606 3.04393C15.8831 2.98536 16.117 2.98536 16.3394 3.04393C16.5915 3.11028 16.821 3.28241 17.28 3.62667L29.3334 12.6667M5.33336 10.6667V23.7333C5.33336 25.2268 5.33336 25.9735 5.62401 26.544C5.87967 27.0457 6.28762 27.4537 6.78938 27.7094C7.35982 28 8.10655 28 9.60003 28H22.4C23.8935 28 24.6402 28 25.2107 27.7094C25.7124 27.4537 26.1204 27.0457 26.376 26.544C26.6667 25.9735 26.6667 25.2268 26.6667 23.7333V10.6667L18.56 4.58667C17.642 3.89815 17.183 3.55389 16.6789 3.42119C16.2339 3.30405 15.7662 3.30405 15.3212 3.42119C14.8171 3.55389 14.358 3.89815 13.44 4.58667L5.33336 10.6667Z" stroke="#C0C0C0" stroke-width="2" stroke-linecap="round" stroke-linejoin="round"/>
</svg>
